<?xml version="1.0" encoding="utf-8"?>
<!-- Generator: Adobe Illustrator 15.0.0, SVG Export Plug-In . SVG Version: 6.00 Build 0)  -->
<!DOCTYPE svg PUBLIC "-//W3C//DTD SVG 1.1//EN" "http://www.w3.org/Graphics/SVG/1.1/DTD/svg11.dtd">
<svg version="1.1" id="Calque_1" xmlns="http://www.w3.org/2000/svg" xmlns:xlink="http://www.w3.org/1999/xlink" x="0px" y="0px"
	 width="800px" height="134.387px" viewBox="0 232.766 800 134.387" enable-background="new 0 232.766 800 134.387"
	 xml:space="preserve">
<g id="Calque_2">
	<path d="M0.623,265.006v102.146h17.841v-29.98c0,0,17.595,9.338,33.961-3.948c4.23-3.479,6.673-8.677,6.651-14.154V279.21
		c0.028-3.268-0.796-6.486-2.392-9.338c-2.965-5.161-9.42-11.91-23.247-13.631C33.437,256.241,13.548,253.997,0.623,265.006z"/>
	<path fill="#FFFFFF" d="M19.021,278.113c0,0,13.646-8.994,22.149,1.163c0.703,0.847,1.308,1.77,1.802,2.753
		c0.998,2.102,1.497,4.406,1.458,6.732v19.659c0.189,5.31-2.845,10.207-7.683,12.402c-1.894,0.819-3.908,1.328-5.963,1.507
		c0,0-7.651,0-12.074-3.719L19.021,278.113z"/>
</g>
<g id="Calque_3">
	<path d="M68.889,283.617v10.878c-0.082,14.395,11.458,26.162,25.852,26.359h1.54c0.673,0,1.346-0.038,2.015-0.114
		c13.596-1.43,23.903-12.919,23.853-26.589v-11.55c0.074-7.478-3.05-14.631-8.584-19.659c-4.537-3.97-10.354-6.169-16.383-6.193
		c-6.118-0.298-12.165,1.43-17.202,4.915C72.954,266.761,68.823,274.938,68.889,283.617z"/>
	<path fill="#FFFFFF" d="M84.043,286.304v5.128c0,6.766,4.915,12.418,11.14,12.435h0.671c0.289,0.021,0.58,0.021,0.869,0
		c5.849-0.64,10.288-6.111,10.288-12.549v-5.439c0.063-3.466-1.279-6.811-3.719-9.272c-1.885-1.846-4.407-2.896-7.044-2.933
		c-2.669-0.133-5.299,0.686-7.421,2.31C85.745,278.516,83.984,282.315,84.043,286.304z"/>
	<circle cx="94.561" cy="332.355" r="7.634"/>
</g>
<g id="Calque_4">
	<path d="M133.159,232.766v84.665c-0.077,7.439,3.624,14.409,9.83,18.513c2.621,1.723,5.592,2.842,8.699,3.276
		c9.865,1.091,19.82,1.091,29.686,0v-16.137c0,0-31.127,3.276-31.603-11.615s-0.41-78.637-0.41-78.637L133.159,232.766z"/>
</g>
<g id="Calque_5">
	<path d="M248.886,286.026v52.277c0,0-41.628,11.713-56.274-12.681c-2.852-4.621-3.625-10.229-2.13-15.449
		c2.54-8.354,11.73-19.658,42.317-14.744c0,0,1.638-18.185-10.436-19.135c0,0-10.534-1.753-16.694,9.83l-11.353-12.32
		c6.908-9.014,17.514-14.431,28.866-14.744c6.421-0.171,12.642,2.243,17.267,6.7C245.93,271.067,248.982,278.397,248.886,286.026z"
		/>
	<path fill="#FFFFFF" d="M232.749,322.575v-14.974c-3.441-0.598-6.927-0.894-10.419-0.885c-5.914,0-13.991,0.475-14.351,8.027
		c-0.328,6.717,7.175,8.617,12.516,8.929C224.611,323.889,228.737,323.52,232.749,322.575z"/>
</g>
<g id="Calque_6">
	<polygon points="261.042,261.664 277.867,261.664 278.276,340.006 261.042,340.006 	"/>
	<circle cx="269.659" cy="242.071" r="7.634"/>
</g>
<g id="Calque_7">
	<path d="M287.992,284.993c-0.066-6.19,2.018-12.213,5.897-17.038c2.499-3.419,6.299-5.654,10.501-6.176
		c11.288-0.819,27.703-0.819,27.703-0.819v15.596l-11.943,0.181c-2.447,0.007-4.865,0.531-7.094,1.54
		c-3.899,1.818-8.454,5.8-8.454,14.482c0,15.17,0.819,47.378,0.819,47.378h-17.431V284.993z"/>
</g>
<g id="Calque_8">
	<path d="M358.502,304.882h43.086l-0.819-25.836c0,0-0.819-19.659-26.67-19.495c-0.541,0-1.065,0-1.638-0.099
		c-15.803-0.643-29.135,11.647-29.777,27.45c-0.019,0.45-0.026,0.9-0.023,1.351v27.098c-0.07,10.646,6.452,20.227,16.383,24.065
		c4.214,1.528,8.63,2.429,13.106,2.671c0,0,20.888,2.588,31.274-12.451l-11.336-8.929c0,0-11.648,10.911-24.574,5.046
		c-5.542-2.641-9.059-8.245-9.027-14.384L358.502,304.882z"/>
	<path fill="#FFFFFF" d="M357.979,294.021c0,0-3.063-17.53,14.056-17.645c16.612-0.115,13.221,17.645,13.221,17.645H357.979z"/>
</g>
<g id="Calque_9">
	<path d="M490.138,283.569l8.765-9.437c0,0-12.729-15.318-29.128-14.745c-16.399,0.574-35.19,9.388-29.751,32.323
		c3.62,15.269,43.004,12.254,44.659,24.722c0.732,4.252-1.395,8.484-5.243,10.436c-5.16,2.425-14.269,3.015-27.588-9.224
		l-11.468,9.027c0,0,13.63,15.989,32.52,15.678c0.721,0,1.425-0.213,2.146-0.262c4.604-0.278,24.837-2.589,24.902-22.248
		c-0.021-7.646-3.824-14.785-10.157-19.069c-6.455-4.538-13.549-5.193-21.02-6.766c-5.75-1.213-12.844-3.703-12.024-10.682
		C458.061,272.346,476.736,270.987,490.138,283.569z"/>
</g>
<g id="Calque_10">
	<path d="M508.191,234.437h15.728v28.932h23.804v14.499h-22.428l0.59,35.222c0,0.574,0,1.131,0,1.639
		c-0.082,2.359,0.442,10.648,11.468,10.648h12.926v15.793c0,0-13.516,2.326-25.491-1.081c-9.929-2.965-16.705-12.132-16.629-22.493
		L508.191,234.437z"/>
</g>
<g id="Calque_11">
	<path d="M562.287,262.664h17.432l1.016,51.916c0,0-0.606,12.5,13.548,12.713c13.401,0.196,13.958-4.915,13.958-4.915l-0.835-60.648
		h15.596l0.672,69.266c0,1.245-6.766,12.156-27.048,12.14c-16.383,0-33.322-10.878-34.272-28.293c0-1.048,0-2.08,0-3.129
		L562.287,262.664z"/>
</g>
<g id="Calque_12">
	<path d="M267.071,359.223"/>
	<path d="M284.912,359.223"/>
	<path d="M697.396,336.599V234.437h-17.841v29.98c0,0-17.596-9.339-33.962,3.948c-4.237,3.488-6.681,8.698-6.651,14.187v39.892
		c-0.028,3.269,0.797,6.487,2.393,9.339c2.965,5.16,9.42,11.91,23.247,13.63C664.581,345.412,684.469,347.673,697.396,336.599z"/>
	<path fill="#FFFFFF" d="M679.079,323.591c0,0-13.646,8.994-22.149-1.163c-0.707-0.838-1.312-1.756-1.802-2.736
		c-0.996-2.103-1.495-4.406-1.458-6.733v-19.659c-0.189-5.309,2.846-10.207,7.684-12.401c1.896-0.813,3.908-1.32,5.963-1.507
		c0,0,7.65,0,12.074,3.735L679.079,323.591z"/>
</g>
<g id="Calque_13">
	<path d="M725.196,242.972"/>
	<polygon points="713.139,264.449 729.964,264.449 730.373,342.808 713.139,342.808 	"/>
	<circle cx="720.266" cy="242.071" r="7.634"/>
</g>
<g id="Calque_15">
	<path d="M746.134,289.073v10.861c-0.082,14.395,11.458,26.162,25.852,26.36h1.523c0.674,0.001,1.346-0.031,2.016-0.099
		c13.599-1.429,23.911-12.915,23.869-26.589v-11.468c0.069-7.48-3.06-14.634-8.601-19.659c-4.538-3.971-10.354-6.175-16.383-6.209
		c-6.113-0.302-12.155,1.426-17.186,4.915C750.207,272.259,746.075,280.413,746.134,289.073z"/>
	<path fill="#FFFFFF" d="M761.288,291.694v5.128c0,6.766,4.914,12.418,11.14,12.435h0.655c0,0,0.328,0,0.868,0
		c5.865-0.639,10.289-6.111,10.289-12.549v-5.488c0.061-3.463-1.273-6.805-3.703-9.272c-1.89-1.849-4.418-2.898-7.061-2.933
		c-2.673-0.115-5.298,0.728-7.405,2.375C762.993,283.918,761.233,287.71,761.288,291.694z"/>
	<circle cx="771.789" cy="337.811" r="7.634"/>
</g>
</svg>
