<svg id="Calque_1" data-name="Calque 1" xmlns="http://www.w3.org/2000/svg" viewBox="0 0 168.74 263.37"><defs><style>.cls-1{fill:#1d1d1b;}.cls-1,.cls-2{stroke:#1d1d1b;stroke-miterlimit:10;stroke-width:0.75px;}.cls-2{fill:#fff;}</style></defs><path class="cls-1" d="M203.05,374.53v34.24c0,45.29,36.25,83,81.54,83.13,1.58,0,3.19,0,4.82-.07a58.67,58.67,0,0,0,6.38-.35c42.86-4.26,75.26-40.8,75.26-83.87v-36.4c0-23.53-9.48-46.38-27.13-61.95-11.89-10.49-28.55-18.91-51.6-19.57s-40.83,6-54.24,15.43C215.7,320.89,203.05,347.14,203.05,374.53Z" transform="translate(-202.68 -289.27)"/><path class="cls-2" d="M250.84,382.77v16.16c0,21.37,15.62,39.16,35.15,39.22l2.08,0a23.62,23.62,0,0,0,2.75-.17c18.47-2,32.44-19.25,32.44-39.57V381.21c0-11.1-4.08-21.89-11.69-29.23a32.56,32.56,0,0,0-22.25-9.24A35.42,35.42,0,0,0,265.94,350C256.29,357.47,250.84,369.85,250.84,382.77Z" transform="translate(-202.68 -289.27)"/><circle class="cls-1" cx="81.35" cy="238.94" r="24.06"/></svg>